<svg xmlns="http://www.w3.org/2000/svg" height="40" viewBox="0 -960 960 960" width="40"><path d="M465.333-80.667Q385-83.333 314.666-115.833q-70.333-32.5-122.333-86.167t-82.166-125.179Q80-398.691 80-480q0-83 31.5-156T197-763q54-54 127-85.5T480-880q148 0 257.833 93.167Q847.667-693.667 873.333-553h-67.999q-17.667-80.333-70.167-143.5t-130.5-94.834V-774q0 34.333-23.834 59.5-23.833 25.166-58.166 25.166H438v84.667q0 16.717-12.833 28.025-12.834 11.309-29.834 11.309h-82V-480h100.001v123.333h-58.001l-200-200q-4.333 19.334-6.5 38.445T146.666-480q0 133.667 91.334 230.333Q329.333-153 465.333-147.333v66.666Zm382.667-24-132-132q-21 14-45.333 22-24.334 8-50.377 8-72.343 0-122.983-50.578-50.64-50.579-50.64-122.833 0-72.255 50.578-122.755 50.579-50.5 122.833-50.5 72.255 0 122.755 50.64t50.5 122.983q0 26.043-8.333 50.377-8.334 24.333-21.667 46l132 131.333L848-104.667ZM619.906-273.333q44.761 0 75.761-30.906 31-30.906 31-75.667t-30.906-75.761q-30.906-31-75.667-31t-75.761 30.906q-31 30.906-31 75.667t30.906 75.761q30.906 31 75.667 31Z"/></svg>