<svg xmlns="http://www.w3.org/2000/svg" xmlns:xlink="http://www.w3.org/1999/xlink" width="672" zoomAndPan="magnify" viewBox="0 0 504 359.999987" height="480" preserveAspectRatio="xMidYMid meet" version="1.0"><defs><filter x="0%" y="0%" width="100%" height="100%" id="186316a6b7"><feColorMatrix values="0 0 0 0 1 0 0 0 0 1 0 0 0 0 1 0 0 0 1 0" color-interpolation-filters="sRGB"/></filter><mask id="fc0fc5d4dc"><g filter="url(#186316a6b7)"><rect x="-50.4" width="604.8" fill="#000000" y="-35.999999" height="431.999984" fill-opacity="0.1098"/></g></mask><clipPath id="2f106ed287"><path d="M 177 0.199219 L 193 0.199219 L 193 10 L 177 10 Z M 177 0.199219 " clip-rule="nonzero"/></clipPath><clipPath id="b55dcba4c4"><path d="M 217 0.199219 L 227 0.199219 L 227 15 L 217 15 Z M 217 0.199219 " clip-rule="nonzero"/></clipPath><clipPath id="f5193c8a84"><path d="M 256 0.199219 L 266 0.199219 L 266 15 L 256 15 Z M 256 0.199219 " clip-rule="nonzero"/></clipPath><clipPath id="2d73271362"><path d="M 284 0.199219 L 300 0.199219 L 300 10 L 284 10 Z M 284 0.199219 " clip-rule="nonzero"/></clipPath><clipPath id="1e355bd2eb"><path d="M 324 0.199219 L 334 0.199219 L 334 15 L 324 15 Z M 324 0.199219 " clip-rule="nonzero"/></clipPath><clipPath id="e553df95d5"><path d="M 363 0.199219 L 373 0.199219 L 373 15 L 363 15 Z M 363 0.199219 " clip-rule="nonzero"/></clipPath><clipPath id="d6b32c8ceb"><path d="M 375.34375 82.246094 L 386.238281 82.246094 L 386.238281 95.75 L 375.34375 95.75 Z M 375.34375 82.246094 " clip-rule="nonzero"/></clipPath><clipPath id="7cf6414f63"><path d="M 376.308594 142.054688 L 386.238281 142.054688 L 386.238281 157 L 376.308594 157 Z M 376.308594 142.054688 " clip-rule="nonzero"/></clipPath><clipPath id="13f81d732d"><path d="M 371.484375 324 L 386.238281 324 L 386.238281 334 L 371.484375 334 Z M 371.484375 324 " clip-rule="nonzero"/></clipPath><clipPath id="f9f2bdc64c"><path d="M 305 344 L 314 344 L 314 358.769531 L 305 358.769531 Z M 305 344 " clip-rule="nonzero"/></clipPath><clipPath id="6d97ffb565"><path d="M 334.808594 347.523438 L 348 347.523438 L 348 358.769531 L 334.808594 358.769531 Z M 334.808594 347.523438 " clip-rule="nonzero"/></clipPath><clipPath id="f9b030988d"><path d="M 372.449219 348.488281 L 386.238281 348.488281 L 386.238281 358.769531 L 372.449219 358.769531 Z M 372.449219 348.488281 " clip-rule="nonzero"/></clipPath><clipPath id="51c49ce67a"><path d="M 152.394531 350 L 167.839844 350 L 167.839844 358.769531 L 152.394531 358.769531 Z M 152.394531 350 " clip-rule="nonzero"/></clipPath><clipPath id="b83c7ad7a0"><path d="M 187.140625 344 L 196.792969 344 L 196.792969 358.769531 L 187.140625 358.769531 Z M 187.140625 344 " clip-rule="nonzero"/></clipPath><clipPath id="fe9b08a169"><path d="M 222 348.488281 L 236 348.488281 L 236 358.769531 L 222 358.769531 Z M 222 348.488281 " clip-rule="nonzero"/></clipPath><clipPath id="d0b90177ba"><path d="M 259.527344 350 L 274.96875 350 L 274.96875 358.769531 L 259.527344 358.769531 Z M 259.527344 350 " clip-rule="nonzero"/></clipPath><clipPath id="c6f80ddf4b"><path d="M 0.867188 344 L 10 344 L 10 358.769531 L 0.867188 358.769531 Z M 0.867188 344 " clip-rule="nonzero"/></clipPath><clipPath id="473547d0e6"><path d="M 33.683594 349.453125 L 48.160156 349.453125 L 48.160156 358.769531 L 33.683594 358.769531 Z M 33.683594 349.453125 " clip-rule="nonzero"/></clipPath><clipPath id="94a4a46020"><path d="M 73.253906 344 L 82.90625 344 L 82.90625 358.769531 L 73.253906 358.769531 Z M 73.253906 344 " clip-rule="nonzero"/></clipPath><clipPath id="fe6efa438b"><path d="M 109 347 L 122 347 L 122 358.769531 L 109 358.769531 Z M 109 347 " clip-rule="nonzero"/></clipPath><clipPath id="8e2da80864"><path d="M 0 0.199219 L 11 0.199219 L 11 15 L 0 15 Z M 0 0.199219 " clip-rule="nonzero"/></clipPath><clipPath id="7c3d9976be"><path d="M 34 0.199219 L 44 0.199219 L 44 15 L 34 15 Z M 34 0.199219 " clip-rule="nonzero"/></clipPath><clipPath id="29845949c7"><path d="M 62 0.199219 L 78 0.199219 L 78 10 L 62 10 Z M 62 0.199219 " clip-rule="nonzero"/></clipPath><clipPath id="18b0a0881a"><path d="M 102 0.199219 L 112 0.199219 L 112 15 L 102 15 Z M 102 0.199219 " clip-rule="nonzero"/></clipPath><clipPath id="c33620f5da"><path d="M 141 0.199219 L 151 0.199219 L 151 15 L 141 15 Z M 141 0.199219 " clip-rule="nonzero"/></clipPath><clipPath id="2c64c85291"><path d="M 374.378906 25.332031 L 386.238281 25.332031 L 386.238281 37.871094 L 374.378906 37.871094 Z M 374.378906 25.332031 " clip-rule="nonzero"/></clipPath><clipPath id="789ed699bc"><path d="M 377.273438 198.003906 L 386.238281 198.003906 L 386.238281 213 L 377.273438 213 Z M 377.273438 198.003906 " clip-rule="nonzero"/></clipPath><clipPath id="5552d2de8b"><path d="M 371.484375 262.632812 L 386.238281 262.632812 L 386.238281 272 L 371.484375 272 Z M 371.484375 262.632812 " clip-rule="nonzero"/></clipPath><clipPath id="1d6b09fcef"><rect x="0" width="388" y="0" height="359"/></clipPath><mask id="a8da299b19"><g filter="url(#186316a6b7)"><rect x="-50.4" width="604.8" fill="#000000" y="-35.999999" height="431.999984" fill-opacity="0.1098"/></g></mask><clipPath id="cce8fdf61d"><path d="M 14.925781 120 L 16 120 L 16 130 L 14.925781 130 Z M 14.925781 120 " clip-rule="nonzero"/></clipPath><clipPath id="062aafb65a"><path d="M 27 349 L 43 349 L 43 358.800781 L 27 358.800781 Z M 27 349 " clip-rule="nonzero"/></clipPath><clipPath id="2affd8732c"><path d="M 67 344 L 77 344 L 77 358.800781 L 67 358.800781 Z M 67 344 " clip-rule="nonzero"/></clipPath><clipPath id="e8867a638b"><path d="M 106 344 L 116 344 L 116 358.800781 L 106 358.800781 Z M 106 344 " clip-rule="nonzero"/></clipPath><clipPath id="5bf5938e17"><path d="M 14.925781 321 L 26 321 L 26 334 L 14.925781 334 Z M 14.925781 321 " clip-rule="nonzero"/></clipPath><clipPath id="fbad9cf83b"><path d="M 118.285156 263.25 L 128.925781 263.25 L 128.925781 276.753906 L 118.285156 276.753906 Z M 118.285156 263.25 " clip-rule="nonzero"/></clipPath><clipPath id="c3c6d1b909"><path d="M 119.25 202 L 128.925781 202 L 128.925781 216.945312 L 119.25 216.945312 Z M 119.25 202 " clip-rule="nonzero"/></clipPath><clipPath id="735b226b25"><path d="M 114.425781 25 L 128.925781 25 L 128.925781 35 L 114.425781 35 Z M 114.425781 25 " clip-rule="nonzero"/></clipPath><clipPath id="29986b25cb"><path d="M 47.828125 0.230469 L 57 0.230469 L 57 15 L 47.828125 15 Z M 47.828125 0.230469 " clip-rule="nonzero"/></clipPath><clipPath id="acef78c57a"><path d="M 77.75 0.230469 L 91 0.230469 L 91 11.476562 L 77.75 11.476562 Z M 77.75 0.230469 " clip-rule="nonzero"/></clipPath><clipPath id="cca1c3c30e"><path d="M 115.390625 0.230469 L 128.925781 0.230469 L 128.925781 10.511719 L 115.390625 10.511719 Z M 115.390625 0.230469 " clip-rule="nonzero"/></clipPath><clipPath id="761f6cb85d"><path d="M 14.925781 0.230469 L 17.910156 0.230469 L 17.910156 9 L 14.925781 9 Z M 14.925781 0.230469 " clip-rule="nonzero"/></clipPath><clipPath id="15fc2c25d1"><path d="M 117.320312 321.128906 L 128.925781 321.128906 L 128.925781 333.667969 L 117.320312 333.667969 Z M 117.320312 321.128906 " clip-rule="nonzero"/></clipPath><clipPath id="76e85e3cff"><path d="M 120.214844 146 L 128.925781 146 L 128.925781 160.996094 L 120.214844 160.996094 Z M 120.214844 146 " clip-rule="nonzero"/></clipPath><clipPath id="03634b990a"><path d="M 114.425781 87 L 128.925781 87 L 128.925781 96.367188 L 114.425781 96.367188 Z M 114.425781 87 " clip-rule="nonzero"/></clipPath><clipPath id="306d5b0bf7"><rect x="0" width="129" y="0" height="359"/></clipPath></defs><g mask="url(#fc0fc5d4dc)"><g transform="matrix(1, 0, 0, 1, 0, 1)"><g clip-path="url(#1d6b09fcef)"><path fill="#9d4918" d="M 42.160156 68.765625 C 47.6875 67.183594 52.1875 63.867188 52.054688 60.886719 C 51.949219 58.496094 49.277344 56.210938 46.898438 56.476562 C 43.929688 56.808594 41.347656 61.761719 40.640625 67.46875 C 40.472656 68.816406 40.851562 69.140625 42.160156 68.765625 " fill-opacity="1" fill-rule="evenodd"/><path fill="#9d4918" d="M 87.707031 58.386719 C 82.855469 55.289062 77.394531 54.117188 75.25 56.1875 C 73.527344 57.855469 73.582031 61.371094 75.359375 62.976562 C 77.570312 64.980469 82.996094 63.632812 87.742188 60.378906 C 88.863281 59.609375 88.855469 59.113281 87.707031 58.386719 " fill-opacity="1" fill-rule="evenodd"/><path fill="#9d4918" d="M 22.941406 83.140625 C 19.769531 87.9375 18.507812 93.378906 20.546875 95.558594 C 22.183594 97.308594 25.699219 97.308594 27.339844 95.558594 C 29.378906 93.378906 28.113281 87.9375 24.941406 83.140625 C 24.191406 82.007812 23.691406 82.007812 22.941406 83.140625 " fill-opacity="1" fill-rule="evenodd"/><path fill="#9d4918" d="M 66.648438 94.320312 C 66.539062 88.566406 64.488281 83.367188 61.570312 82.734375 C 59.230469 82.222656 56.335938 84.21875 55.980469 86.585938 C 55.539062 89.539062 59.667969 93.300781 65.003906 95.449219 C 66.265625 95.957031 66.675781 95.675781 66.648438 94.320312 " fill-opacity="1" fill-rule="evenodd"/><path fill="#9d4918" d="M 94.84375 92.992188 C 100.496094 94.0625 106.003906 93.117188 107.222656 90.394531 C 108.203125 88.207031 106.84375 84.964844 104.59375 84.136719 C 101.792969 83.101562 97.265625 86.371094 94.070312 91.152344 C 93.316406 92.285156 93.507812 92.746094 94.84375 92.992188 " fill-opacity="1" fill-rule="evenodd"/><path fill="#9d4918" d="M 8.703125 114.238281 C 3.714844 117.105469 0.148438 121.40625 0.992188 124.265625 C 1.675781 126.5625 4.820312 128.136719 7.066406 127.304688 C 9.867188 126.273438 11.175781 120.84375 10.488281 115.128906 C 10.324219 113.785156 9.878906 113.5625 8.703125 114.238281 " fill-opacity="1" fill-rule="evenodd"/><path fill="#9d4918" d="M 39.054688 114.523438 C 38.605469 120.257812 40.148438 125.628906 42.988281 126.542969 C 45.269531 127.277344 48.34375 125.574219 48.925781 123.25 C 49.648438 120.355469 45.90625 116.210938 40.800781 113.554688 C 39.597656 112.929688 39.160156 113.171875 39.054688 114.523438 " fill-opacity="1" fill-rule="evenodd"/><path fill="#9d4918" d="M 80.285156 113.230469 C 77.109375 118.027344 75.847656 123.46875 77.886719 125.648438 C 79.523438 127.394531 83.042969 127.394531 84.675781 125.648438 C 86.71875 123.46875 85.457031 118.027344 82.28125 113.230469 C 81.535156 112.097656 81.03125 112.097656 80.285156 113.230469 " fill-opacity="1" fill-rule="evenodd"/><path fill="#9d4918" d="M 30.398438 148.867188 C 25.652344 145.617188 20.226562 144.269531 18.019531 146.273438 C 16.238281 147.878906 16.1875 151.394531 17.910156 153.058594 C 20.054688 155.132812 25.515625 153.957031 30.371094 150.863281 C 31.511719 150.132812 31.523438 149.636719 30.398438 148.867188 " fill-opacity="1" fill-rule="evenodd"/><path fill="#9d4918" d="M 63.671875 143.417969 C 58.925781 146.671875 55.703125 151.234375 56.773438 154.019531 C 57.628906 156.257812 60.882812 157.582031 63.0625 156.578125 C 65.769531 155.324219 66.652344 149.8125 65.523438 144.171875 C 65.253906 142.839844 64.792969 142.652344 63.671875 143.417969 " fill-opacity="1" fill-rule="evenodd"/><path fill="#9d4918" d="M 99.398438 143.320312 C 96.226562 148.117188 94.960938 153.558594 97.003906 155.738281 C 98.636719 157.488281 102.15625 157.488281 103.792969 155.738281 C 105.832031 153.558594 104.570312 148.117188 101.394531 143.320312 C 100.648438 142.191406 100.144531 142.191406 99.398438 143.320312 " fill-opacity="1" fill-rule="evenodd"/><path fill="#9d4918" d="M 11.128906 171.136719 C 5.527344 172.457031 0.878906 175.554688 0.867188 178.539062 C 0.859375 180.933594 3.425781 183.339844 5.816406 183.191406 C 8.792969 183 11.605469 178.171875 12.582031 172.5 C 12.8125 171.167969 12.449219 170.824219 11.128906 171.136719 " fill-opacity="1" fill-rule="evenodd"/><path fill="#9d4918" d="M 36.539062 180.03125 C 40.894531 183.78125 46.140625 185.722656 48.554688 183.976562 C 50.5 182.574219 50.945312 179.085938 49.417969 177.242188 C 47.511719 174.945312 41.953125 175.507812 36.789062 178.046875 C 35.574219 178.648438 35.507812 179.144531 36.539062 180.03125 " fill-opacity="1" fill-rule="evenodd"/><path fill="#9d4918" d="M 77.722656 173.980469 C 76.847656 179.667969 77.976562 185.136719 80.742188 186.261719 C 82.960938 187.167969 86.15625 185.691406 86.910156 183.421875 C 87.847656 180.585938 84.425781 176.175781 79.535156 173.144531 C 78.378906 172.433594 77.925781 172.640625 77.722656 173.980469 " fill-opacity="1" fill-rule="evenodd"/><path fill="#9d4918" d="M 194.714844 58.386719 C 189.863281 55.289062 184.398438 54.117188 182.253906 56.1875 C 180.53125 57.855469 180.589844 61.371094 182.363281 62.976562 C 184.578125 64.980469 190.003906 63.632812 194.75 60.378906 C 195.867188 59.609375 195.859375 59.113281 194.714844 58.386719 " fill-opacity="1" fill-rule="evenodd"/><path fill="#9d4918" d="M 129.949219 83.140625 C 126.773438 87.9375 125.511719 93.378906 127.554688 95.558594 C 129.191406 97.308594 132.703125 97.308594 134.34375 95.558594 C 136.382812 93.378906 135.121094 87.9375 131.945312 83.140625 C 131.195312 82.007812 130.699219 82.007812 129.949219 83.140625 " fill-opacity="1" fill-rule="evenodd"/><path fill="#9d4918" d="M 173.65625 94.320312 C 173.546875 88.566406 171.496094 83.367188 168.578125 82.734375 C 166.234375 82.222656 163.339844 84.21875 162.984375 86.585938 C 162.546875 89.539062 166.671875 93.300781 172.011719 95.449219 C 173.269531 95.957031 173.683594 95.675781 173.65625 94.320312 " fill-opacity="1" fill-rule="evenodd"/><path fill="#9d4918" d="M 201.847656 92.992188 C 207.503906 94.0625 213.011719 93.117188 214.230469 90.394531 C 215.210938 88.207031 213.847656 84.964844 211.601562 84.136719 C 208.800781 83.101562 204.269531 86.371094 201.074219 91.152344 C 200.320312 92.285156 200.511719 92.746094 201.847656 92.992188 " fill-opacity="1" fill-rule="evenodd"/><path fill="#9d4918" d="M 115.113281 114.238281 C 110.125 117.105469 106.558594 121.40625 107.40625 124.265625 C 108.085938 126.5625 111.230469 128.136719 113.476562 127.304688 C 116.277344 126.273438 117.585938 120.84375 116.902344 115.128906 C 116.738281 113.785156 116.292969 113.5625 115.113281 114.238281 " fill-opacity="1" fill-rule="evenodd"/><path fill="#9d4918" d="M 146.0625 114.523438 C 145.617188 120.257812 147.152344 125.628906 149.996094 126.542969 C 152.273438 127.277344 155.351562 125.574219 155.933594 123.25 C 156.65625 120.355469 152.914062 116.210938 147.808594 113.554688 C 146.601562 112.929688 146.167969 113.171875 146.0625 114.523438 " fill-opacity="1" fill-rule="evenodd"/><path fill="#9d4918" d="M 187.292969 113.230469 C 184.117188 118.027344 182.855469 123.46875 184.894531 125.648438 C 186.53125 127.394531 190.046875 127.394531 191.683594 125.648438 C 193.722656 123.46875 192.464844 118.027344 189.285156 113.230469 C 188.539062 112.097656 188.042969 112.097656 187.292969 113.230469 " fill-opacity="1" fill-rule="evenodd"/><path fill="#9d4918" d="M 137.40625 148.867188 C 132.660156 145.617188 127.238281 144.269531 125.023438 146.273438 C 123.25 147.878906 123.191406 151.394531 124.914062 153.058594 C 127.066406 155.132812 132.523438 153.957031 137.375 150.863281 C 138.519531 150.132812 138.53125 149.636719 137.40625 148.867188 " fill-opacity="1" fill-rule="evenodd"/><path fill="#9d4918" d="M 170.675781 143.417969 C 165.929688 146.671875 162.710938 151.234375 163.777344 154.019531 C 164.636719 156.257812 167.890625 157.582031 170.070312 156.578125 C 172.777344 155.324219 173.660156 149.8125 172.527344 144.171875 C 172.261719 142.839844 171.800781 142.652344 170.675781 143.417969 " fill-opacity="1" fill-rule="evenodd"/><path fill="#9d4918" d="M 206.40625 143.320312 C 203.230469 148.117188 201.96875 153.558594 204.007812 155.738281 C 205.644531 157.488281 209.164062 157.488281 210.796875 155.738281 C 212.839844 153.558594 211.574219 148.117188 208.402344 143.320312 C 207.652344 142.191406 207.152344 142.191406 206.40625 143.320312 " fill-opacity="1" fill-rule="evenodd"/><path fill="#9d4918" d="M 120.152344 171.136719 C 114.550781 172.457031 109.902344 175.554688 109.894531 178.539062 C 109.886719 180.933594 112.449219 183.339844 114.84375 183.191406 C 117.820312 183 120.632812 178.171875 121.609375 172.5 C 121.839844 171.167969 121.476562 170.824219 120.152344 171.136719 " fill-opacity="1" fill-rule="evenodd"/><path fill="#9d4918" d="M 143.542969 180.03125 C 147.90625 183.78125 153.144531 185.722656 155.5625 183.976562 C 157.507812 182.574219 157.953125 179.085938 156.421875 177.242188 C 154.519531 174.945312 148.957031 175.507812 143.796875 178.046875 C 142.578125 178.648438 142.515625 179.144531 143.542969 180.03125 " fill-opacity="1" fill-rule="evenodd"/><path fill="#9d4918" d="M 184.722656 173.980469 C 183.851562 179.667969 184.984375 185.136719 187.75 186.261719 C 189.96875 187.167969 193.160156 185.695312 193.914062 183.421875 C 194.855469 180.589844 191.429688 176.175781 186.539062 173.144531 C 185.382812 172.433594 184.933594 172.640625 184.722656 173.980469 " fill-opacity="1" fill-rule="evenodd"/><path fill="#9d4918" d="M 57.769531 209.546875 C 63.523438 209.351562 68.691406 207.230469 69.289062 204.308594 C 69.765625 201.960938 67.730469 199.097656 65.355469 198.777344 C 62.394531 198.375 58.691406 202.554688 56.617188 207.921875 C 56.125 209.1875 56.414062 209.589844 57.769531 209.546875 " fill-opacity="1" fill-rule="evenodd"/><path fill="#9d4918" d="M 99.234375 199.496094 C 97.050781 204.816406 96.867188 210.402344 99.285156 212.140625 C 101.230469 213.542969 104.683594 212.859375 105.953125 210.832031 C 107.527344 208.296875 105.234375 203.203125 101.195312 199.109375 C 100.242188 198.144531 99.75 198.242188 99.234375 199.496094 " fill-opacity="1" fill-rule="evenodd"/><path fill="#9d4918" d="M 145.328125 203.902344 C 140.476562 200.808594 135.011719 199.636719 132.867188 201.707031 C 131.144531 203.375 131.199219 206.886719 132.976562 208.492188 C 135.1875 210.496094 140.609375 209.144531 145.359375 205.894531 C 146.480469 205.128906 146.472656 204.632812 145.328125 203.902344 " fill-opacity="1" fill-rule="evenodd"/><path fill="#9d4918" d="M 80.5625 228.65625 C 77.386719 233.453125 76.125 238.894531 78.167969 241.074219 C 79.804688 242.824219 83.316406 242.824219 84.957031 241.074219 C 86.996094 238.894531 85.734375 233.453125 82.558594 228.65625 C 81.808594 227.527344 81.3125 227.527344 80.5625 228.65625 " fill-opacity="1" fill-rule="evenodd"/><path fill="#9d4918" d="M 124.265625 239.832031 C 124.15625 234.082031 122.105469 228.886719 119.1875 228.25 C 116.847656 227.738281 113.953125 229.734375 113.597656 232.101562 C 113.15625 235.050781 117.285156 238.816406 122.625 240.964844 C 123.882812 241.472656 124.292969 241.191406 124.265625 239.832031 " fill-opacity="1" fill-rule="evenodd"/><path fill="#9d4918" d="M 152.460938 238.511719 C 158.113281 239.578125 163.625 238.632812 164.839844 235.910156 C 165.820312 233.726562 164.460938 230.484375 162.214844 229.652344 C 159.414062 228.621094 154.878906 231.886719 151.6875 236.671875 C 150.933594 237.800781 151.125 238.257812 152.460938 238.511719 " fill-opacity="1" fill-rule="evenodd"/><path fill="#9d4918" d="M 65.726562 259.753906 C 60.738281 262.625 57.171875 266.921875 58.019531 269.78125 C 58.699219 272.082031 61.84375 273.652344 64.089844 272.824219 C 66.890625 271.789062 68.199219 266.359375 67.511719 260.648438 C 67.351562 259.300781 66.90625 259.078125 65.726562 259.753906 " fill-opacity="1" fill-rule="evenodd"/><path fill="#9d4918" d="M 96.675781 260.042969 C 96.226562 265.773438 97.761719 271.144531 100.605469 272.0625 C 102.886719 272.796875 105.964844 271.089844 106.542969 268.769531 C 107.269531 265.871094 103.523438 261.726562 98.417969 259.074219 C 97.21875 258.445312 96.78125 258.6875 96.675781 260.042969 " fill-opacity="1" fill-rule="evenodd"/><path fill="#9d4918" d="M 137.902344 258.746094 C 134.730469 263.546875 133.464844 268.988281 135.507812 271.164062 C 137.140625 272.914062 140.660156 272.914062 142.296875 271.164062 C 144.335938 268.988281 143.078125 263.546875 139.898438 258.746094 C 139.152344 257.617188 138.652344 257.617188 137.902344 258.746094 " fill-opacity="1" fill-rule="evenodd"/><path fill="#9d4918" d="M 88.019531 294.386719 C 83.269531 291.132812 77.851562 289.789062 75.636719 291.789062 C 73.859375 293.398438 73.804688 296.914062 75.527344 298.574219 C 77.671875 300.648438 83.136719 299.476562 87.988281 296.378906 C 89.132812 295.648438 89.140625 295.148438 88.019531 294.386719 " fill-opacity="1" fill-rule="evenodd"/><path fill="#9d4918" d="M 121.289062 288.9375 C 116.542969 292.183594 113.324219 296.75 114.390625 299.535156 C 115.25 301.773438 118.503906 303.097656 120.683594 302.09375 C 123.390625 300.84375 124.269531 295.328125 123.140625 289.691406 C 122.871094 288.355469 122.414062 288.171875 121.289062 288.9375 " fill-opacity="1" fill-rule="evenodd"/><path fill="#9d4918" d="M 157.019531 288.839844 C 153.839844 293.636719 152.582031 299.078125 154.621094 301.253906 C 156.257812 303.003906 159.773438 303.003906 161.410156 301.253906 C 163.449219 299.078125 162.1875 293.636719 159.011719 288.839844 C 158.261719 287.707031 157.765625 287.707031 157.019531 288.839844 " fill-opacity="1" fill-rule="evenodd"/><path fill="#9d4918" d="M 70.765625 316.652344 C 65.164062 317.972656 60.515625 321.070312 60.507812 324.054688 C 60.5 326.449219 63.058594 328.855469 65.453125 328.707031 C 68.433594 328.511719 71.242188 323.6875 72.222656 318.019531 C 72.453125 316.679688 72.085938 316.34375 70.765625 316.652344 " fill-opacity="1" fill-rule="evenodd"/><path fill="#9d4918" d="M 96.601562 320.625 C 96.558594 326.375 98.472656 331.625 101.367188 332.339844 C 103.695312 332.914062 106.640625 330.996094 107.0625 328.636719 C 107.582031 325.699219 103.554688 321.828125 98.277344 319.539062 C 97.027344 319 96.609375 319.269531 96.601562 320.625 " fill-opacity="1" fill-rule="evenodd"/><path fill="#9d4918" d="M 131.898438 323.984375 C 135.667969 328.328125 140.574219 331.003906 143.21875 329.625 C 145.347656 328.519531 146.289062 325.132812 145.042969 323.085938 C 143.492188 320.539062 137.90625 320.292969 132.433594 322.0625 C 131.140625 322.480469 131.007812 322.957031 131.898438 323.984375 " fill-opacity="1" fill-rule="evenodd"/><path fill="#9d4918" d="M 164.777344 209.546875 C 170.53125 209.351562 175.699219 207.230469 176.292969 204.308594 C 176.773438 201.960938 174.738281 199.097656 172.363281 198.777344 C 169.402344 198.375 165.695312 202.554688 163.625 207.921875 C 163.132812 209.1875 163.417969 209.589844 164.777344 209.546875 " fill-opacity="1" fill-rule="evenodd"/><path fill="#9d4918" d="M 205.824219 213.3125 C 210.441406 209.871094 213.464844 205.179688 212.285156 202.4375 C 211.332031 200.238281 208.027344 199.050781 205.894531 200.144531 C 203.234375 201.503906 202.582031 207.050781 203.949219 212.640625 C 204.273438 213.957031 204.738281 214.125 205.824219 213.3125 " fill-opacity="1" fill-rule="evenodd"/><path fill="#9d4918" d="M 252.332031 203.902344 C 247.480469 200.808594 242.019531 199.636719 239.875 201.707031 C 238.148438 203.375 238.207031 206.886719 239.984375 208.492188 C 242.195312 210.496094 247.617188 209.144531 252.367188 205.894531 C 253.488281 205.128906 253.480469 204.632812 252.332031 203.902344 " fill-opacity="1" fill-rule="evenodd"/><path fill="#9d4918" d="M 187.566406 228.65625 C 184.394531 233.453125 183.132812 238.894531 185.171875 241.074219 C 186.808594 242.824219 190.324219 242.824219 191.964844 241.074219 C 194.003906 238.894531 192.738281 233.453125 189.566406 228.65625 C 188.816406 227.527344 188.316406 227.527344 187.566406 228.65625 " fill-opacity="1" fill-rule="evenodd"/><path fill="#9d4918" d="M 231.273438 239.832031 C 231.164062 234.082031 229.113281 228.886719 226.195312 228.25 C 223.855469 227.738281 220.957031 229.734375 220.605469 232.101562 C 220.164062 235.050781 224.292969 238.816406 229.628906 240.964844 C 230.890625 241.472656 231.300781 241.191406 231.273438 239.832031 " fill-opacity="1" fill-rule="evenodd"/><path fill="#9d4918" d="M 259.464844 238.511719 C 265.121094 239.578125 270.628906 238.632812 271.851562 235.910156 C 272.828125 233.726562 271.464844 230.484375 269.21875 229.652344 C 266.417969 228.621094 261.886719 231.886719 258.695312 236.671875 C 257.941406 237.800781 258.132812 238.257812 259.464844 238.511719 " fill-opacity="1" fill-rule="evenodd"/><path fill="#9d4918" d="M 176.625 264.269531 C 171.210938 262.324219 165.625 262.390625 163.988281 264.882812 C 162.675781 266.890625 163.511719 270.304688 165.597656 271.476562 C 168.195312 272.945312 173.1875 270.429688 177.101562 266.210938 C 178.023438 265.214844 177.90625 264.730469 176.625 264.269531 " fill-opacity="1" fill-rule="evenodd"/><path fill="#9d4918" d="M 203.679688 260.042969 C 203.234375 265.773438 204.773438 271.144531 207.613281 272.0625 C 209.894531 272.796875 212.96875 271.089844 213.550781 268.769531 C 214.273438 265.871094 210.53125 261.726562 205.425781 259.074219 C 204.21875 258.445312 203.785156 258.6875 203.679688 260.042969 " fill-opacity="1" fill-rule="evenodd"/><path fill="#9d4918" d="M 244.910156 258.746094 C 241.734375 263.546875 240.472656 268.988281 242.511719 271.164062 C 244.148438 272.914062 247.667969 272.914062 249.300781 271.164062 C 251.34375 268.988281 250.082031 263.546875 246.90625 258.746094 C 246.15625 257.617188 245.660156 257.617188 244.910156 258.746094 " fill-opacity="1" fill-rule="evenodd"/><path fill="#9d4918" d="M 195.023438 294.386719 C 190.277344 291.132812 184.855469 289.789062 182.644531 291.789062 C 180.863281 293.398438 180.8125 296.914062 182.535156 298.574219 C 184.679688 300.648438 190.140625 299.476562 194.996094 296.378906 C 196.136719 295.648438 196.144531 295.148438 195.023438 294.386719 " fill-opacity="1" fill-rule="evenodd"/><path fill="#9d4918" d="M 228.300781 288.9375 C 223.550781 292.183594 220.328125 296.75 221.394531 299.535156 C 222.253906 301.773438 225.511719 303.097656 227.6875 302.09375 C 230.394531 300.84375 231.277344 295.328125 230.148438 289.691406 C 229.878906 288.355469 229.417969 288.171875 228.300781 288.9375 " fill-opacity="1" fill-rule="evenodd"/><path fill="#9d4918" d="M 264.023438 288.839844 C 260.847656 293.636719 259.585938 299.078125 261.625 301.253906 C 263.261719 303.003906 266.78125 303.003906 268.417969 301.253906 C 270.457031 299.078125 269.195312 293.636719 266.019531 288.839844 C 265.269531 287.707031 264.773438 287.707031 264.023438 288.839844 " fill-opacity="1" fill-rule="evenodd"/><path fill="#9d4918" d="M 177.773438 316.652344 C 172.171875 317.972656 167.523438 321.070312 167.515625 324.054688 C 167.507812 326.449219 170.066406 328.855469 172.460938 328.707031 C 175.4375 328.511719 178.246094 323.6875 179.226562 318.019531 C 179.457031 316.679688 179.09375 316.34375 177.773438 316.652344 " fill-opacity="1" fill-rule="evenodd"/><path fill="#9d4918" d="M 203.609375 320.625 C 203.5625 326.375 205.476562 331.625 208.375 332.335938 C 210.699219 332.914062 213.648438 330.996094 214.066406 328.636719 C 214.585938 325.699219 210.5625 321.828125 205.28125 319.539062 C 204.035156 318.996094 203.617188 319.265625 203.609375 320.625 " fill-opacity="1" fill-rule="evenodd"/><path fill="#9d4918" d="M 241.132812 329.804688 C 246.886719 329.746094 252.101562 327.738281 252.761719 324.828125 C 253.292969 322.492188 251.324219 319.582031 248.957031 319.207031 C 246.003906 318.742188 242.207031 322.839844 240.011719 328.15625 C 239.496094 329.410156 239.773438 329.820312 241.132812 329.804688 " fill-opacity="1" fill-rule="evenodd"/><g clip-path="url(#2f106ed287)"><path fill="#9d4918" d="M 191.378906 3.792969 C 186.628906 0.542969 181.207031 -0.804688 178.992188 1.195312 C 177.21875 2.804688 177.160156 6.316406 178.882812 7.984375 C 181.035156 10.054688 186.492188 8.882812 191.34375 5.785156 C 192.488281 5.054688 192.5 4.558594 191.378906 3.792969 " fill-opacity="1" fill-rule="evenodd"/></g><g clip-path="url(#b55dcba4c4)"><path fill="#9d4918" d="M 224.644531 0.707031 C 219.898438 3.957031 216.679688 8.519531 217.746094 11.308594 C 218.605469 13.542969 221.863281 14.867188 224.039062 13.863281 C 226.746094 12.609375 227.628906 7.097656 226.496094 1.457031 C 226.230469 0.128906 225.769531 -0.0625 224.644531 0.707031 " fill-opacity="1" fill-rule="evenodd"/></g><g clip-path="url(#f5193c8a84)"><path fill="#9d4918" d="M 260.375 1.101562 C 257.199219 5.898438 255.9375 11.339844 257.976562 13.523438 C 259.613281 15.269531 263.132812 15.269531 264.765625 13.523438 C 266.808594 11.339844 265.542969 5.898438 262.371094 1.101562 C 261.621094 -0.0273438 261.121094 -0.0273438 260.375 1.101562 " fill-opacity="1" fill-rule="evenodd"/></g><path fill="#9d4918" d="M 174.121094 25.566406 C 168.519531 26.882812 163.871094 29.984375 163.863281 32.964844 C 163.855469 35.363281 166.417969 37.769531 168.8125 37.621094 C 171.789062 37.429688 174.601562 32.601562 175.578125 26.933594 C 175.808594 25.597656 175.445312 25.257812 174.121094 25.566406 " fill-opacity="1" fill-rule="evenodd"/><path fill="#9d4918" d="M 197.511719 34.457031 C 201.875 38.210938 207.109375 40.152344 209.53125 38.402344 C 211.476562 37.003906 211.921875 33.515625 210.390625 31.671875 C 208.488281 29.375 202.925781 29.9375 197.765625 32.480469 C 196.546875 33.078125 196.484375 33.574219 197.511719 34.457031 " fill-opacity="1" fill-rule="evenodd"/><path fill="#9d4918" d="M 237.484375 38.71875 C 243.234375 38.65625 248.449219 36.652344 249.113281 33.742188 C 249.644531 31.40625 247.671875 28.492188 245.304688 28.121094 C 242.359375 27.65625 238.558594 31.75 236.363281 37.070312 C 235.847656 38.324219 236.125 38.734375 237.484375 38.71875 " fill-opacity="1" fill-rule="evenodd"/><g clip-path="url(#2d73271362)"><path fill="#9d4918" d="M 298.386719 3.792969 C 293.632812 0.542969 288.214844 -0.804688 286 1.195312 C 284.226562 2.804688 284.167969 6.316406 285.890625 7.984375 C 288.035156 10.054688 293.5 8.882812 298.351562 5.785156 C 299.492188 5.054688 299.503906 4.558594 298.386719 3.792969 " fill-opacity="1" fill-rule="evenodd"/></g><g clip-path="url(#1e355bd2eb)"><path fill="#9d4918" d="M 331.652344 0.707031 C 326.90625 3.957031 323.6875 8.519531 324.753906 11.308594 C 325.613281 13.542969 328.871094 14.867188 331.046875 13.863281 C 333.757812 12.609375 334.632812 7.097656 333.503906 1.457031 C 333.234375 0.128906 332.777344 -0.0625 331.652344 0.707031 " fill-opacity="1" fill-rule="evenodd"/></g><g clip-path="url(#e553df95d5)"><path fill="#9d4918" d="M 367.382812 1.101562 C 364.207031 5.898438 362.945312 11.339844 364.984375 13.523438 C 366.621094 15.269531 370.136719 15.269531 371.773438 13.523438 C 373.8125 11.339844 372.550781 5.898438 369.375 1.101562 C 368.625 -0.0273438 368.128906 -0.0273438 367.382812 1.101562 " fill-opacity="1" fill-rule="evenodd"/></g><path fill="#9d4918" d="M 281.128906 25.566406 C 275.527344 26.882812 270.878906 29.984375 270.871094 32.964844 C 270.863281 35.363281 273.421875 37.769531 275.816406 37.621094 C 278.796875 37.429688 281.609375 32.601562 282.585938 26.933594 C 282.816406 25.597656 282.453125 25.257812 281.128906 25.566406 " fill-opacity="1" fill-rule="evenodd"/><path fill="#9d4918" d="M 309.632812 28.261719 C 307.054688 33.402344 306.460938 38.957031 308.75 40.875 C 310.585938 42.417969 314.078125 41.992188 315.488281 40.058594 C 317.25 37.648438 315.34375 32.398438 311.613281 28.019531 C 310.730469 26.988281 310.238281 27.046875 309.632812 28.261719 " fill-opacity="1" fill-rule="evenodd"/><path fill="#9d4918" d="M 344.488281 38.71875 C 350.242188 38.65625 355.457031 36.652344 356.121094 33.742188 C 356.652344 31.40625 354.679688 28.492188 352.3125 28.121094 C 349.363281 27.65625 345.5625 31.75 343.371094 37.070312 C 342.851562 38.324219 343.132812 38.734375 344.488281 38.71875 " fill-opacity="1" fill-rule="evenodd"/><path fill="#9d4918" d="M 225.640625 52.050781 C 220.808594 55.171875 217.46875 59.648438 218.460938 62.464844 C 219.257812 64.722656 222.476562 66.132812 224.679688 65.1875 C 227.421875 64.007812 228.453125 58.519531 227.46875 52.851562 C 227.238281 51.511719 226.785156 51.3125 225.640625 52.050781 " fill-opacity="1" fill-rule="evenodd"/><path fill="#9d4918" d="M 255.496094 57.683594 C 258.144531 62.792969 262.28125 66.542969 265.179688 65.824219 C 267.507812 65.25 269.21875 62.179688 268.488281 59.902344 C 267.578125 57.054688 262.207031 55.507812 256.472656 55.941406 C 255.117188 56.046875 254.875 56.480469 255.496094 57.683594 " fill-opacity="1" fill-rule="evenodd"/><path fill="#9d4918" d="M 299.273438 66.320312 C 303.117188 62.046875 305.164062 56.847656 303.46875 54.390625 C 302.101562 52.421875 298.625 51.90625 296.75 53.398438 C 294.410156 55.25 294.859375 60.820312 297.300781 66.03125 C 297.871094 67.261719 298.367188 67.332031 299.273438 66.320312 " fill-opacity="1" fill-rule="evenodd"/><path fill="#9d4918" d="M 241.535156 83.085938 C 238.363281 87.882812 237.101562 93.324219 239.140625 95.503906 C 240.777344 97.253906 244.296875 97.253906 245.933594 95.503906 C 247.972656 93.324219 246.707031 87.882812 243.535156 83.085938 C 242.785156 81.957031 242.285156 81.957031 241.535156 83.085938 " fill-opacity="1" fill-rule="evenodd"/><path fill="#9d4918" d="M 285.242188 94.261719 C 285.132812 88.511719 283.082031 83.316406 280.164062 82.679688 C 277.824219 82.171875 274.925781 84.164062 274.574219 86.53125 C 274.132812 89.484375 278.261719 93.246094 283.597656 95.398438 C 284.859375 95.902344 285.269531 95.621094 285.242188 94.261719 " fill-opacity="1" fill-rule="evenodd"/><path fill="#9d4918" d="M 313.433594 92.941406 C 319.089844 94.007812 324.597656 93.066406 325.820312 90.339844 C 326.796875 88.15625 325.433594 84.914062 323.1875 84.082031 C 320.386719 83.046875 315.855469 86.320312 312.664062 91.101562 C 311.910156 92.230469 312.101562 92.6875 313.433594 92.941406 " fill-opacity="1" fill-rule="evenodd"/><path fill="#9d4918" d="M 226.699219 114.183594 C 221.710938 117.050781 218.144531 121.351562 218.996094 124.210938 C 219.671875 126.511719 222.816406 128.082031 225.0625 127.253906 C 227.867188 126.21875 229.175781 120.785156 228.488281 115.078125 C 228.324219 113.734375 227.878906 113.507812 226.699219 114.183594 " fill-opacity="1" fill-rule="evenodd"/><path fill="#9d4918" d="M 257.648438 114.472656 C 257.203125 120.207031 258.742188 125.570312 261.582031 126.492188 C 263.863281 127.226562 266.9375 125.519531 267.519531 123.199219 C 268.242188 120.300781 264.5 116.15625 259.394531 113.503906 C 258.191406 112.878906 257.753906 113.117188 257.648438 114.472656 " fill-opacity="1" fill-rule="evenodd"/><path fill="#9d4918" d="M 298.878906 113.179688 C 295.703125 117.976562 294.441406 123.417969 296.480469 125.59375 C 298.117188 127.34375 301.636719 127.34375 303.269531 125.59375 C 305.3125 123.417969 304.050781 117.976562 300.878906 113.179688 C 300.125 112.042969 299.628906 112.042969 298.878906 113.179688 " fill-opacity="1" fill-rule="evenodd"/><path fill="#9d4918" d="M 248.996094 148.8125 C 244.246094 145.566406 238.824219 144.21875 236.613281 146.21875 C 234.835938 147.828125 234.78125 151.34375 236.503906 153.003906 C 238.648438 155.082031 244.109375 153.90625 248.964844 150.808594 C 250.105469 150.078125 250.117188 149.578125 248.996094 148.8125 " fill-opacity="1" fill-rule="evenodd"/><path fill="#9d4918" d="M 282.269531 143.367188 C 277.519531 146.613281 274.296875 151.179688 275.363281 153.964844 C 276.222656 156.203125 279.480469 157.527344 281.65625 156.523438 C 284.367188 155.273438 285.246094 149.757812 284.117188 144.117188 C 283.847656 142.789062 283.386719 142.601562 282.269531 143.367188 " fill-opacity="1" fill-rule="evenodd"/><path fill="#9d4918" d="M 317.992188 143.265625 C 314.820312 148.0625 313.554688 153.503906 315.59375 155.6875 C 317.230469 157.4375 320.75 157.4375 322.386719 155.6875 C 324.425781 153.503906 323.164062 148.0625 319.988281 143.265625 C 319.238281 142.136719 318.742188 142.136719 317.992188 143.265625 " fill-opacity="1" fill-rule="evenodd"/><path fill="#9d4918" d="M 231.742188 171.082031 C 226.140625 172.402344 221.492188 175.5 221.484375 178.484375 C 221.476562 180.878906 224.035156 183.289062 226.429688 183.132812 C 229.40625 182.945312 232.214844 178.117188 233.195312 172.449219 C 233.425781 171.109375 233.0625 170.769531 231.742188 171.082031 " fill-opacity="1" fill-rule="evenodd"/><path fill="#9d4918" d="M 257.578125 175.054688 C 257.53125 180.804688 259.445312 186.054688 262.34375 186.769531 C 264.667969 187.34375 267.617188 185.425781 268.035156 183.066406 C 268.554688 180.132812 264.53125 176.257812 259.25 173.964844 C 258.003906 173.425781 257.585938 173.695312 257.578125 175.054688 " fill-opacity="1" fill-rule="evenodd"/><path fill="#9d4918" d="M 306.644531 182.644531 C 304.46875 177.320312 300.683594 173.210938 297.738281 173.664062 C 295.363281 174.03125 293.382812 176.933594 293.90625 179.273438 C 294.558594 182.183594 299.765625 184.207031 305.519531 184.292969 C 306.878906 184.3125 307.15625 183.902344 306.644531 182.644531 " fill-opacity="1" fill-rule="evenodd"/><path fill="#9d4918" d="M 325.753906 63.972656 C 331.503906 63.785156 336.675781 61.660156 337.269531 58.738281 C 337.75 56.390625 335.710938 53.523438 333.335938 53.203125 C 330.378906 52.804688 326.671875 56.984375 324.597656 62.351562 C 324.109375 63.617188 324.398438 64.023438 325.753906 63.972656 " fill-opacity="1" fill-rule="evenodd"/><path fill="#9d4918" d="M 356.546875 57.683594 C 359.191406 62.792969 363.332031 66.542969 366.226562 65.824219 C 368.554688 65.25 370.269531 62.179688 369.539062 59.902344 C 368.625 57.054688 363.257812 55.507812 357.519531 55.941406 C 356.164062 56.046875 355.925781 56.480469 356.546875 57.683594 " fill-opacity="1" fill-rule="evenodd"/><path fill="#9d4918" d="M 348.542969 83.085938 C 345.367188 87.882812 344.109375 93.324219 346.148438 95.503906 C 347.785156 97.253906 351.300781 97.253906 352.9375 95.503906 C 354.976562 93.324219 353.714844 87.882812 350.539062 83.085938 C 349.789062 81.957031 349.292969 81.957031 348.542969 83.085938 " fill-opacity="1" fill-rule="evenodd"/><g clip-path="url(#d6b32c8ceb)"><path fill="#9d4918" d="M 386.234375 94.261719 C 386.125 88.511719 384.074219 83.316406 381.15625 82.679688 C 378.816406 82.171875 375.921875 84.164062 375.566406 86.53125 C 375.125 89.484375 379.253906 93.246094 384.59375 95.398438 C 385.851562 95.902344 386.261719 95.621094 386.234375 94.261719 " fill-opacity="1" fill-rule="evenodd"/></g><path fill="#9d4918" d="M 333.707031 114.183594 C 328.71875 117.050781 325.152344 121.351562 326 124.210938 C 326.679688 126.511719 329.824219 128.082031 332.070312 127.253906 C 334.871094 126.21875 336.183594 120.785156 335.492188 115.078125 C 335.332031 113.734375 334.886719 113.507812 333.707031 114.183594 " fill-opacity="1" fill-rule="evenodd"/><path fill="#9d4918" d="M 359.78125 114.472656 C 359.335938 120.207031 360.875 125.570312 363.714844 126.492188 C 365.992188 127.226562 369.070312 125.519531 369.652344 123.199219 C 370.378906 120.300781 366.636719 116.15625 361.527344 113.503906 C 360.324219 112.878906 359.886719 113.117188 359.78125 114.472656 " fill-opacity="1" fill-rule="evenodd"/><path fill="#9d4918" d="M 356.003906 148.8125 C 351.253906 145.566406 345.832031 144.21875 343.617188 146.21875 C 341.84375 147.828125 341.785156 151.34375 343.507812 153.003906 C 345.65625 155.082031 351.117188 153.90625 355.96875 150.808594 C 357.117188 150.078125 357.121094 149.578125 356.003906 148.8125 " fill-opacity="1" fill-rule="evenodd"/><g clip-path="url(#7cf6414f63)"><path fill="#9d4918" d="M 383.90625 143.367188 C 379.15625 146.613281 375.9375 151.179688 377.003906 153.964844 C 377.863281 156.203125 381.121094 157.527344 383.296875 156.523438 C 386.003906 155.273438 386.886719 149.757812 385.753906 144.117188 C 385.484375 142.789062 385.027344 142.601562 383.90625 143.367188 " fill-opacity="1" fill-rule="evenodd"/></g><path fill="#9d4918" d="M 338.746094 171.082031 C 333.144531 172.402344 328.496094 175.5 328.488281 178.484375 C 328.480469 180.878906 331.046875 183.289062 333.4375 183.132812 C 336.414062 182.945312 339.222656 178.117188 340.203125 172.449219 C 340.433594 171.109375 340.070312 170.769531 338.746094 171.082031 " fill-opacity="1" fill-rule="evenodd"/><path fill="#9d4918" d="M 355.09375 179.976562 C 359.457031 183.730469 364.695312 185.667969 367.117188 183.921875 C 369.058594 182.515625 369.503906 179.03125 367.976562 177.1875 C 366.074219 174.890625 360.511719 175.453125 355.347656 177.996094 C 354.128906 178.597656 354.070312 179.085938 355.09375 179.976562 " fill-opacity="1" fill-rule="evenodd"/><path fill="#9d4918" d="M 320.121094 202.828125 C 317.933594 208.148438 317.75 213.726562 320.171875 215.472656 C 322.117188 216.871094 325.566406 216.191406 326.835938 214.15625 C 328.414062 211.625 326.121094 206.53125 322.078125 202.4375 C 321.121094 201.472656 320.636719 201.566406 320.121094 202.828125 " fill-opacity="1" fill-rule="evenodd"/><path fill="#9d4918" d="M 359.171875 207.230469 C 354.320312 204.132812 348.855469 202.960938 346.710938 205.035156 C 344.988281 206.703125 345.042969 210.214844 346.820312 211.820312 C 349.03125 213.824219 354.453125 212.476562 359.203125 209.226562 C 360.324219 208.460938 360.316406 207.957031 359.171875 207.230469 " fill-opacity="1" fill-rule="evenodd"/><path fill="#9d4918" d="M 301.445312 231.988281 C 298.273438 236.78125 297.007812 242.226562 299.046875 244.40625 C 300.683594 246.152344 304.203125 246.152344 305.839844 244.40625 C 307.878906 242.226562 306.613281 236.78125 303.445312 231.988281 C 302.695312 230.855469 302.195312 230.855469 301.445312 231.988281 " fill-opacity="1" fill-rule="evenodd"/><path fill="#9d4918" d="M 337.566406 243.164062 C 337.457031 237.414062 335.40625 232.21875 332.492188 231.582031 C 330.152344 231.070312 327.257812 233.0625 326.902344 235.433594 C 326.457031 238.382812 330.589844 242.148438 335.925781 244.296875 C 337.1875 244.804688 337.59375 244.519531 337.566406 243.164062 " fill-opacity="1" fill-rule="evenodd"/><path fill="#9d4918" d="M 361.429688 241.84375 C 367.082031 242.910156 372.589844 241.960938 373.808594 239.238281 C 374.789062 237.054688 373.429688 233.8125 371.183594 232.984375 C 368.378906 231.945312 363.851562 235.21875 360.65625 240 C 359.902344 241.128906 360.09375 241.589844 361.429688 241.84375 " fill-opacity="1" fill-rule="evenodd"/><path fill="#9d4918" d="M 286.609375 263.082031 C 281.625 265.949219 278.058594 270.25 278.902344 273.113281 C 279.578125 275.410156 282.722656 276.984375 284.976562 276.152344 C 287.777344 275.117188 289.085938 269.6875 288.394531 263.976562 C 288.230469 262.632812 287.789062 262.410156 286.609375 263.082031 " fill-opacity="1" fill-rule="evenodd"/><path fill="#9d4918" d="M 314.847656 262.832031 C 314.402344 268.566406 315.941406 273.929688 318.78125 274.851562 C 321.066406 275.585938 324.136719 273.878906 324.71875 271.558594 C 325.445312 268.664062 321.703125 264.515625 316.597656 261.859375 C 315.390625 261.238281 314.957031 261.476562 314.847656 262.832031 " fill-opacity="1" fill-rule="evenodd"/><path fill="#9d4918" d="M 352.285156 261.535156 C 349.113281 266.332031 347.851562 271.773438 349.890625 273.953125 C 351.527344 275.703125 355.046875 275.703125 356.683594 273.953125 C 358.722656 271.773438 357.457031 266.332031 354.285156 261.535156 C 353.535156 260.402344 353.035156 260.402344 352.285156 261.535156 " fill-opacity="1" fill-rule="evenodd"/><path fill="#9d4918" d="M 308.902344 297.710938 C 304.152344 294.464844 298.730469 293.113281 296.519531 295.121094 C 294.742188 296.730469 294.6875 300.242188 296.414062 301.90625 C 298.558594 303.980469 304.019531 302.804688 308.875 299.710938 C 310.015625 298.976562 310.023438 298.480469 308.902344 297.710938 " fill-opacity="1" fill-rule="evenodd"/><path fill="#9d4918" d="M 336.757812 292.265625 C 332.011719 295.515625 328.789062 300.078125 329.859375 302.867188 C 330.714844 305.101562 333.972656 306.429688 336.148438 305.421875 C 338.855469 304.171875 339.738281 298.65625 338.609375 293.015625 C 338.339844 291.6875 337.878906 291.5 336.757812 292.265625 " fill-opacity="1" fill-rule="evenodd"/><path fill="#9d4918" d="M 291.648438 319.980469 C 286.050781 321.300781 281.398438 324.398438 281.390625 327.382812 C 281.382812 329.777344 283.945312 332.1875 286.335938 332.035156 C 289.3125 331.84375 292.125 327.015625 293.101562 321.351562 C 293.332031 320.011719 292.972656 319.667969 291.648438 319.980469 " fill-opacity="1" fill-rule="evenodd"/><path fill="#9d4918" d="M 315.042969 328.875 C 319.398438 332.628906 324.640625 334.570312 327.058594 332.820312 C 329.003906 331.417969 329.445312 327.933594 327.921875 326.085938 C 326.015625 323.792969 320.457031 324.351562 315.289062 326.898438 C 314.074219 327.496094 314.011719 327.988281 315.042969 328.875 " fill-opacity="1" fill-rule="evenodd"/><g clip-path="url(#13f81d732d)"><path fill="#9d4918" d="M 372.53125 327.316406 C 376.300781 331.660156 381.207031 334.335938 383.855469 332.957031 C 385.980469 331.847656 386.925781 328.464844 385.675781 326.417969 C 384.128906 323.871094 378.542969 323.621094 373.066406 325.394531 C 371.777344 325.808594 371.640625 326.289062 372.53125 327.316406 " fill-opacity="1" fill-rule="evenodd"/></g><g clip-path="url(#f9f2bdc64c)"><path fill="#9d4918" d="M 309.5625 344.980469 C 305.820312 349.351562 303.902344 354.597656 305.652344 357.007812 C 307.0625 358.945312 310.550781 359.378906 312.390625 357.84375 C 314.683594 355.929688 314.101562 350.375 311.542969 345.226562 C 310.941406 344.011719 310.445312 343.949219 309.5625 344.980469 " fill-opacity="1" fill-rule="evenodd"/></g><g clip-path="url(#6d97ffb565)"><path fill="#9d4918" d="M 336.273438 358.765625 C 342.027344 358.574219 347.195312 356.449219 347.789062 353.527344 C 348.265625 351.179688 346.230469 348.316406 343.855469 347.996094 C 340.898438 347.59375 337.191406 351.773438 335.117188 357.140625 C 334.625 358.40625 334.917969 358.8125 336.273438 358.765625 " fill-opacity="1" fill-rule="evenodd"/></g><g clip-path="url(#f9b030988d)"><path fill="#9d4918" d="M 373.074219 350.542969 C 375.722656 355.648438 379.859375 359.402344 382.753906 358.679688 C 385.082031 358.105469 386.796875 355.035156 386.066406 352.753906 C 385.152344 349.914062 379.785156 348.363281 374.046875 348.796875 C 372.695312 348.898438 372.453125 349.335938 373.074219 350.542969 " fill-opacity="1" fill-rule="evenodd"/></g><path fill="#9d4918" d="M 283.21875 199.921875 C 280.042969 204.722656 278.78125 210.164062 280.820312 212.339844 C 282.457031 214.089844 285.972656 214.089844 287.609375 212.339844 C 289.648438 210.164062 288.386719 204.722656 285.210938 199.921875 C 284.464844 198.792969 283.96875 198.792969 283.21875 199.921875 " fill-opacity="1" fill-rule="evenodd"/><g clip-path="url(#51c49ce67a)"><path fill="#9d4918" d="M 166.253906 353.234375 C 161.40625 350.140625 155.941406 348.96875 153.792969 351.042969 C 152.070312 352.707031 152.128906 356.21875 153.902344 357.828125 C 156.117188 359.832031 161.542969 358.480469 166.289062 355.230469 C 167.410156 354.464844 167.402344 353.96875 166.253906 353.234375 " fill-opacity="1" fill-rule="evenodd"/></g><g clip-path="url(#b83c7ad7a0)"><path fill="#9d4918" d="M 190.5 358.164062 C 194.714844 354.25 197.222656 349.257812 195.753906 346.660156 C 194.570312 344.574219 191.15625 343.746094 189.15625 345.0625 C 186.660156 346.703125 186.605469 352.285156 188.5625 357.695312 C 189.023438 358.972656 189.503906 359.085938 190.5 358.164062 " fill-opacity="1" fill-rule="evenodd"/></g><g clip-path="url(#fe9b08a169)"><path fill="#9d4918" d="M 222.460938 350.542969 C 225.101562 355.648438 229.242188 359.402344 232.136719 358.679688 C 234.464844 358.105469 236.179688 355.035156 235.445312 352.753906 C 234.535156 349.914062 229.171875 348.363281 223.429688 348.796875 C 222.074219 348.898438 221.832031 349.335938 222.460938 350.542969 " fill-opacity="1" fill-rule="evenodd"/></g><g clip-path="url(#d0b90177ba)"><path fill="#9d4918" d="M 273.261719 353.234375 C 268.410156 350.140625 262.945312 348.96875 260.800781 351.042969 C 259.078125 352.707031 259.132812 356.21875 260.910156 357.828125 C 263.125 359.832031 268.546875 358.480469 273.296875 355.230469 C 274.414062 354.464844 274.40625 353.96875 273.261719 353.234375 " fill-opacity="1" fill-rule="evenodd"/></g><g clip-path="url(#c6f80ddf4b)"><path fill="#9d4918" d="M 5.433594 344.980469 C 1.695312 349.351562 -0.226562 354.597656 1.523438 357.007812 C 2.933594 358.945312 6.425781 359.378906 8.265625 357.84375 C 10.558594 355.929688 9.976562 350.375 7.414062 345.226562 C 6.808594 344.011719 6.316406 343.949219 5.433594 344.980469 " fill-opacity="1" fill-rule="evenodd"/></g><g clip-path="url(#473547d0e6)"><path fill="#9d4918" d="M 46.90625 350.238281 C 41.320312 348.839844 35.769531 349.457031 34.386719 352.101562 C 33.28125 354.226562 34.449219 357.542969 36.644531 358.503906 C 39.375 359.707031 44.09375 356.710938 47.566406 352.125 C 48.386719 351.042969 48.222656 350.570312 46.90625 350.238281 " fill-opacity="1" fill-rule="evenodd"/></g><g clip-path="url(#94a4a46020)"><path fill="#9d4918" d="M 79.773438 357.855469 C 82.621094 352.855469 83.515625 347.34375 81.332031 345.304688 C 79.585938 343.667969 76.074219 343.902344 74.558594 345.761719 C 72.671875 348.070312 74.292969 353.414062 77.78125 357.988281 C 78.605469 359.066406 79.101562 359.035156 79.773438 357.855469 " fill-opacity="1" fill-rule="evenodd"/></g><g clip-path="url(#fe6efa438b)"><path fill="#9d4918" d="M 120.367188 347.207031 C 114.671875 348.050781 109.777344 350.75 109.519531 353.722656 C 109.3125 356.105469 111.660156 358.722656 114.058594 358.769531 C 117.039062 358.832031 120.25 354.257812 121.695312 348.691406 C 122.039062 347.375 121.707031 347.007812 120.367188 347.207031 " fill-opacity="1" fill-rule="evenodd"/></g><path fill="#9d4918" d="M 38.179688 238.511719 C 43.835938 239.578125 49.339844 238.632812 50.5625 235.910156 C 51.542969 233.726562 50.179688 230.484375 47.933594 229.652344 C 45.132812 228.621094 40.601562 231.886719 37.410156 236.671875 C 36.65625 237.800781 36.847656 238.257812 38.179688 238.511719 " fill-opacity="1" fill-rule="evenodd"/><path fill="#9d4918" d="M 31.898438 203.902344 C 27.046875 200.808594 21.585938 199.636719 19.4375 201.707031 C 17.714844 203.375 17.769531 206.886719 19.550781 208.492188 C 21.761719 210.496094 27.183594 209.144531 31.929688 205.894531 C 33.050781 205.128906 33.042969 204.632812 31.898438 203.902344 " fill-opacity="1" fill-rule="evenodd"/><path fill="#9d4918" d="M 11.570312 239.832031 C 11.457031 234.082031 9.40625 228.886719 6.492188 228.25 C 4.152344 227.738281 1.257812 229.734375 0.902344 232.101562 C 0.460938 235.050781 4.589844 238.816406 9.929688 240.964844 C 11.1875 241.472656 11.59375 241.191406 11.570312 239.832031 " fill-opacity="1" fill-rule="evenodd"/><path fill="#9d4918" d="M 24.472656 258.746094 C 21.296875 263.546875 20.035156 268.988281 22.074219 271.164062 C 23.714844 272.914062 27.230469 272.914062 28.867188 271.164062 C 30.90625 268.988281 29.644531 263.546875 26.472656 258.746094 C 25.722656 257.617188 25.222656 257.617188 24.472656 258.746094 " fill-opacity="1" fill-rule="evenodd"/><path fill="#9d4918" d="M 7.976562 288.9375 C 3.230469 292.183594 0.0078125 296.75 1.074219 299.535156 C 1.933594 301.773438 5.1875 303.097656 7.363281 302.09375 C 10.074219 300.84375 10.957031 295.328125 9.828125 289.691406 C 9.558594 288.355469 9.09375 288.171875 7.976562 288.9375 " fill-opacity="1" fill-rule="evenodd"/><path fill="#9d4918" d="M 20.695312 329.804688 C 26.453125 329.746094 31.667969 327.738281 32.328125 324.828125 C 32.859375 322.492188 30.886719 319.582031 28.519531 319.207031 C 25.570312 318.742188 21.769531 322.839844 19.574219 328.15625 C 19.058594 329.410156 19.339844 329.820312 20.695312 329.804688 " fill-opacity="1" fill-rule="evenodd"/><path fill="#9d4918" d="M 50.414062 300.339844 C 45.667969 297.089844 40.242188 295.742188 38.035156 297.742188 C 36.253906 299.351562 36.199219 302.867188 37.925781 304.527344 C 40.070312 306.605469 45.53125 305.429688 50.386719 302.332031 C 51.527344 301.601562 51.535156 301.105469 50.414062 300.339844 " fill-opacity="1" fill-rule="evenodd"/><path fill="#9d4918" d="M 119.023438 65.445312 C 120.765625 59.960938 120.484375 54.378906 117.925781 52.84375 C 115.875 51.605469 112.492188 52.570312 111.394531 54.699219 C 110.03125 57.359375 112.734375 62.246094 117.105469 65.992188 C 118.136719 66.871094 118.613281 66.738281 119.023438 65.445312 " fill-opacity="1" fill-rule="evenodd"/><g clip-path="url(#8e2da80864)"><path fill="#9d4918" d="M 7.976562 0.707031 C 3.230469 3.957031 0.0078125 8.519531 1.074219 11.308594 C 1.933594 13.542969 5.1875 14.867188 7.363281 13.863281 C 10.074219 12.609375 10.957031 7.097656 9.828125 1.457031 C 9.558594 0.128906 9.09375 -0.0625 7.976562 0.707031 " fill-opacity="1" fill-rule="evenodd"/></g><g clip-path="url(#7c3d9976be)"><path fill="#9d4918" d="M 38.3125 1.101562 C 35.140625 5.898438 33.875 11.339844 35.914062 13.523438 C 37.554688 15.269531 41.070312 15.269531 42.707031 13.523438 C 44.746094 11.339844 43.484375 5.898438 40.308594 1.101562 C 39.5625 -0.0273438 39.0625 -0.0273438 38.3125 1.101562 " fill-opacity="1" fill-rule="evenodd"/></g><path fill="#9d4918" d="M 15.421875 38.71875 C 21.175781 38.65625 26.390625 36.652344 27.050781 33.742188 C 27.582031 31.40625 25.613281 28.492188 23.242188 28.121094 C 20.296875 27.65625 16.496094 31.75 14.300781 37.070312 C 13.785156 38.324219 14.0625 38.734375 15.421875 38.71875 " fill-opacity="1" fill-rule="evenodd"/><g clip-path="url(#29845949c7)"><path fill="#9d4918" d="M 76.324219 3.792969 C 71.574219 0.542969 66.152344 -0.804688 63.9375 1.195312 C 62.164062 2.804688 62.105469 6.316406 63.828125 7.984375 C 65.976562 10.054688 71.441406 8.882812 76.289062 5.785156 C 77.433594 5.054688 77.441406 4.558594 76.324219 3.792969 " fill-opacity="1" fill-rule="evenodd"/></g><g clip-path="url(#18b0a0881a)"><path fill="#9d4918" d="M 109.59375 0.707031 C 104.84375 3.957031 101.625 8.519531 102.695312 11.308594 C 103.550781 13.542969 106.808594 14.867188 108.984375 13.863281 C 111.695312 12.609375 112.578125 7.097656 111.441406 1.457031 C 111.175781 0.128906 110.714844 -0.0625 109.59375 0.707031 " fill-opacity="1" fill-rule="evenodd"/></g><g clip-path="url(#c33620f5da)"><path fill="#9d4918" d="M 145.320312 1.101562 C 142.144531 5.898438 140.882812 11.339844 142.921875 13.523438 C 144.5625 15.269531 148.074219 15.269531 149.710938 13.523438 C 151.753906 11.339844 150.492188 5.898438 147.3125 1.101562 C 146.566406 -0.0273438 146.070312 -0.0273438 145.320312 1.101562 " fill-opacity="1" fill-rule="evenodd"/></g><path fill="#9d4918" d="M 59.066406 25.566406 C 53.464844 26.882812 48.816406 29.984375 48.808594 32.964844 C 48.800781 35.363281 51.363281 37.769531 53.753906 37.621094 C 56.734375 37.429688 59.546875 32.601562 60.523438 26.933594 C 60.753906 25.597656 60.390625 25.257812 59.066406 25.566406 " fill-opacity="1" fill-rule="evenodd"/><path fill="#9d4918" d="M 87.570312 28.261719 C 85 33.402344 84.398438 38.957031 86.6875 40.875 C 88.523438 42.417969 92.015625 41.992188 93.429688 40.058594 C 95.1875 37.648438 93.28125 32.398438 89.550781 28.019531 C 88.671875 26.988281 88.175781 27.046875 87.570312 28.261719 " fill-opacity="1" fill-rule="evenodd"/><path fill="#9d4918" d="M 122.425781 38.71875 C 128.183594 38.65625 133.398438 36.652344 134.058594 33.742188 C 134.589844 31.40625 132.617188 28.492188 130.25 28.121094 C 127.300781 27.65625 123.503906 31.75 121.308594 37.070312 C 120.792969 38.324219 121.070312 38.734375 122.425781 38.71875 " fill-opacity="1" fill-rule="evenodd"/><g clip-path="url(#2c64c85291)"><path fill="#9d4918" d="M 384.714844 25.566406 C 379.113281 26.882812 374.46875 29.984375 374.457031 32.964844 C 374.449219 35.363281 377.015625 37.769531 379.402344 37.621094 C 382.382812 37.429688 385.195312 32.601562 386.171875 26.933594 C 386.402344 25.597656 386.039062 25.257812 384.714844 25.566406 " fill-opacity="1" fill-rule="evenodd"/></g><g clip-path="url(#789ed699bc)"><path fill="#9d4918" d="M 379.019531 199.496094 C 376.832031 204.816406 376.648438 210.402344 379.074219 212.140625 C 381.019531 213.542969 384.46875 212.859375 385.734375 210.832031 C 387.3125 208.296875 385.023438 203.203125 380.976562 199.109375 C 380.023438 198.144531 379.535156 198.242188 379.019531 199.496094 " fill-opacity="1" fill-rule="evenodd"/></g><g clip-path="url(#5552d2de8b)"><path fill="#9d4918" d="M 385.152344 264.039062 C 379.726562 262.132812 374.136719 262.234375 372.519531 264.746094 C 371.222656 266.761719 372.078125 270.167969 374.179688 271.328125 C 376.789062 272.769531 381.761719 270.21875 385.640625 265.972656 C 386.554688 264.972656 386.433594 264.488281 385.152344 264.039062 " fill-opacity="1" fill-rule="evenodd"/></g><path fill="#9d4918" d="M 363.820312 292.167969 C 360.644531 296.964844 359.382812 302.40625 361.421875 304.585938 C 363.058594 306.332031 366.574219 306.332031 368.210938 304.585938 C 370.253906 302.40625 368.992188 296.964844 365.816406 292.167969 C 365.066406 291.035156 364.570312 291.035156 363.820312 292.167969 " fill-opacity="1" fill-rule="evenodd"/><path fill="#9d4918" d="M 345.511719 320.625 C 345.46875 326.375 347.378906 331.625 350.277344 332.335938 C 352.601562 332.914062 355.550781 330.996094 355.96875 328.636719 C 356.488281 325.699219 352.464844 321.828125 347.183594 319.539062 C 345.9375 318.996094 345.523438 319.265625 345.511719 320.625 " fill-opacity="1" fill-rule="evenodd"/><path fill="#9d4918" d="M 146.636719 57.683594 C 149.277344 62.792969 153.417969 66.542969 156.316406 65.824219 C 158.644531 65.25 160.355469 62.179688 159.625 59.902344 C 158.714844 57.054688 153.347656 55.507812 147.609375 55.941406 C 146.253906 56.046875 146.007812 56.480469 146.636719 57.683594 " fill-opacity="1" fill-rule="evenodd"/><path fill="#9d4918" d="M 1.195312 57.683594 C 3.84375 62.792969 7.980469 66.542969 10.878906 65.824219 C 13.203125 65.25 14.914062 62.179688 14.183594 59.902344 C 13.277344 57.054688 7.90625 55.507812 2.167969 55.941406 C 0.816406 56.046875 0.570312 56.480469 1.195312 57.683594 " fill-opacity="1" fill-rule="evenodd"/></g></g></g><g mask="url(#a8da299b19)"><g transform="matrix(1, 0, 0, 1, 375, 0)"><g clip-path="url(#306d5b0bf7)"><g clip-path="url(#cce8fdf61d)"><path fill="#9d4918" d="M 2.40625 120.488281 C 8.0625 119.421875 13.570312 120.367188 14.792969 123.089844 C 15.769531 125.273438 14.40625 128.515625 12.160156 129.347656 C 9.359375 130.378906 4.828125 127.113281 1.632812 122.328125 C 0.878906 121.199219 1.074219 120.742188 2.40625 120.488281 " fill-opacity="1" fill-rule="evenodd"/></g><g clip-path="url(#062aafb65a)"><path fill="#9d4918" d="M 41.324219 355.207031 C 36.574219 358.457031 31.15625 359.804688 28.941406 357.804688 C 27.164062 356.195312 27.109375 352.683594 28.832031 351.015625 C 30.976562 348.945312 36.441406 350.117188 41.292969 353.214844 C 42.433594 353.945312 42.445312 354.441406 41.324219 355.207031 " fill-opacity="1" fill-rule="evenodd"/></g><g clip-path="url(#2affd8732c)"><path fill="#9d4918" d="M 74.59375 358.292969 C 69.847656 355.042969 66.628906 350.480469 67.695312 347.691406 C 68.554688 345.457031 71.8125 344.132812 73.988281 345.136719 C 76.695312 346.390625 77.574219 351.902344 76.445312 357.542969 C 76.175781 358.871094 75.71875 359.0625 74.59375 358.292969 " fill-opacity="1" fill-rule="evenodd"/></g><g clip-path="url(#e8867a638b)"><path fill="#9d4918" d="M 110.324219 357.898438 C 107.148438 353.101562 105.886719 347.660156 107.925781 345.476562 C 109.5625 343.730469 113.078125 343.730469 114.714844 345.476562 C 116.753906 347.660156 115.492188 353.101562 112.316406 357.898438 C 111.566406 359.027344 111.070312 359.027344 110.324219 357.898438 " fill-opacity="1" fill-rule="evenodd"/></g><g clip-path="url(#5bf5938e17)"><path fill="#9d4918" d="M 24.070312 333.433594 C 18.46875 332.117188 13.820312 329.015625 13.8125 326.035156 C 13.804688 323.636719 16.363281 321.230469 18.757812 321.378906 C 21.738281 321.570312 24.550781 326.398438 25.527344 332.066406 C 25.753906 333.402344 25.394531 333.742188 24.070312 333.433594 " fill-opacity="1" fill-rule="evenodd"/></g><path fill="#9d4918" d="M 52.570312 330.738281 C 49.996094 325.597656 49.402344 320.042969 51.691406 318.125 C 53.527344 316.582031 57.015625 317.007812 58.429688 318.941406 C 60.191406 321.351562 58.285156 326.601562 54.554688 330.980469 C 53.671875 332.011719 53.179688 331.953125 52.570312 330.738281 " fill-opacity="1" fill-rule="evenodd"/><path fill="#9d4918" d="M 87.429688 320.28125 C 93.183594 320.34375 98.398438 322.347656 99.0625 325.257812 C 99.59375 327.59375 97.621094 330.507812 95.253906 330.878906 C 92.304688 331.34375 88.503906 327.25 86.3125 321.929688 C 85.792969 320.675781 86.074219 320.265625 87.429688 320.28125 " fill-opacity="1" fill-rule="evenodd"/><path fill="#9d4918" d="M 42.214844 292.679688 C 46.058594 296.953125 48.105469 302.152344 46.40625 304.609375 C 45.042969 306.578125 41.566406 307.09375 39.691406 305.601562 C 37.351562 303.75 37.800781 298.179688 40.242188 292.96875 C 40.8125 291.738281 41.308594 291.667969 42.214844 292.679688 " fill-opacity="1" fill-rule="evenodd"/><path fill="#9d4918" d="M 28.183594 264.738281 C 28.074219 270.488281 26.023438 275.683594 23.105469 276.320312 C 20.765625 276.828125 17.867188 274.835938 17.515625 272.46875 C 17.074219 269.515625 21.203125 265.753906 26.539062 263.601562 C 27.800781 263.097656 28.210938 263.378906 28.183594 264.738281 " fill-opacity="1" fill-rule="evenodd"/><path fill="#9d4918" d="M 56.375 266.058594 C 62.03125 264.992188 67.539062 265.933594 68.761719 268.660156 C 69.738281 270.84375 68.375 274.085938 66.128906 274.917969 C 63.328125 275.953125 58.796875 272.679688 55.601562 267.898438 C 54.847656 266.769531 55.042969 266.3125 56.375 266.058594 " fill-opacity="1" fill-rule="evenodd"/><path fill="#9d4918" d="M 41.820312 245.820312 C 38.644531 241.023438 37.382812 235.582031 39.421875 233.40625 C 41.058594 231.65625 44.574219 231.65625 46.210938 233.40625 C 48.25 235.582031 46.992188 241.023438 43.816406 245.820312 C 43.066406 246.957031 42.570312 246.957031 41.820312 245.820312 " fill-opacity="1" fill-rule="evenodd"/><path fill="#9d4918" d="M 25.207031 215.632812 C 20.457031 212.386719 17.238281 207.820312 18.304688 205.035156 C 19.164062 202.796875 22.421875 201.472656 24.597656 202.476562 C 27.308594 203.726562 28.1875 209.242188 27.054688 214.882812 C 26.789062 216.210938 26.328125 216.398438 25.207031 215.632812 " fill-opacity="1" fill-rule="evenodd"/><path fill="#9d4918" d="M 60.933594 215.734375 C 57.761719 210.9375 56.496094 205.496094 58.535156 203.3125 C 60.171875 201.5625 63.691406 201.5625 65.328125 203.3125 C 67.367188 205.496094 66.105469 210.9375 62.929688 215.734375 C 62.179688 216.863281 61.683594 216.863281 60.933594 215.734375 " fill-opacity="1" fill-rule="evenodd"/><path fill="#9d4918" d="M 49.585938 176.355469 C 47.410156 181.679688 43.625 185.789062 40.675781 185.335938 C 38.304688 184.96875 36.324219 182.066406 36.847656 179.726562 C 37.5 176.816406 42.707031 174.792969 48.460938 174.707031 C 49.820312 174.6875 50.097656 175.097656 49.585938 176.355469 " fill-opacity="1" fill-rule="evenodd"/><path fill="#9d4918" d="M 68.691406 295.027344 C 74.445312 295.214844 79.613281 297.339844 80.210938 300.261719 C 80.691406 302.609375 78.652344 305.476562 76.277344 305.792969 C 73.320312 306.195312 69.613281 302.015625 67.539062 296.648438 C 67.050781 295.382812 67.339844 294.976562 68.691406 295.027344 " fill-opacity="1" fill-rule="evenodd"/><path fill="#9d4918" d="M 99.488281 301.316406 C 102.132812 296.207031 106.273438 292.457031 109.167969 293.175781 C 111.496094 293.75 113.210938 296.820312 112.480469 299.097656 C 111.566406 301.945312 106.199219 303.492188 100.460938 303.058594 C 99.105469 302.953125 98.863281 302.519531 99.488281 301.316406 " fill-opacity="1" fill-rule="evenodd"/><path fill="#9d4918" d="M 91.484375 275.914062 C 88.308594 271.117188 87.050781 265.675781 89.089844 263.496094 C 90.726562 261.746094 94.242188 261.746094 95.878906 263.496094 C 97.917969 265.675781 96.65625 271.117188 93.480469 275.914062 C 92.730469 277.042969 92.234375 277.042969 91.484375 275.914062 " fill-opacity="1" fill-rule="evenodd"/><g clip-path="url(#fbad9cf83b)"><path fill="#9d4918" d="M 129.175781 264.738281 C 129.066406 270.488281 127.015625 275.683594 124.097656 276.320312 C 121.757812 276.828125 118.863281 274.835938 118.507812 272.46875 C 118.066406 269.515625 122.195312 265.753906 127.53125 263.601562 C 128.792969 263.097656 129.203125 263.378906 129.175781 264.738281 " fill-opacity="1" fill-rule="evenodd"/></g><path fill="#9d4918" d="M 76.648438 244.816406 C 71.660156 241.949219 68.09375 237.648438 68.941406 234.789062 C 69.621094 232.488281 72.765625 230.917969 75.011719 231.746094 C 77.8125 232.78125 79.125 238.214844 78.433594 243.921875 C 78.273438 245.265625 77.828125 245.492188 76.648438 244.816406 " fill-opacity="1" fill-rule="evenodd"/><path fill="#9d4918" d="M 102.722656 244.527344 C 102.277344 238.792969 103.816406 233.425781 106.652344 232.507812 C 108.933594 231.773438 112.011719 233.480469 112.59375 235.800781 C 113.320312 238.699219 109.574219 242.84375 104.46875 245.496094 C 103.265625 246.121094 102.828125 245.882812 102.722656 244.527344 " fill-opacity="1" fill-rule="evenodd"/><path fill="#9d4918" d="M 98.945312 210.1875 C 94.195312 213.433594 88.773438 214.78125 86.558594 212.78125 C 84.785156 211.171875 84.726562 207.65625 86.449219 205.996094 C 88.59375 203.917969 94.058594 205.09375 98.910156 208.191406 C 100.054688 208.921875 100.0625 209.421875 98.945312 210.1875 " fill-opacity="1" fill-rule="evenodd"/><g clip-path="url(#c3c6d1b909)"><path fill="#9d4918" d="M 126.847656 215.632812 C 122.097656 212.386719 118.875 207.820312 119.945312 205.035156 C 120.804688 202.796875 124.0625 201.472656 126.234375 202.476562 C 128.945312 203.726562 129.828125 209.242188 128.695312 214.882812 C 128.425781 216.210938 127.964844 216.398438 126.847656 215.632812 " fill-opacity="1" fill-rule="evenodd"/></g><path fill="#9d4918" d="M 81.6875 187.917969 C 76.085938 186.597656 71.4375 183.5 71.429688 180.515625 C 71.421875 178.121094 73.988281 175.710938 76.375 175.867188 C 79.355469 176.054688 82.164062 180.882812 83.144531 186.550781 C 83.375 187.890625 83.011719 188.230469 81.6875 187.917969 " fill-opacity="1" fill-rule="evenodd"/><path fill="#9d4918" d="M 98.035156 179.023438 C 102.398438 175.269531 107.636719 173.332031 110.058594 175.078125 C 112 176.484375 112.445312 179.96875 110.917969 181.8125 C 109.015625 184.109375 103.453125 183.546875 98.289062 181.003906 C 97.070312 180.402344 97.011719 179.914062 98.035156 179.023438 " fill-opacity="1" fill-rule="evenodd"/><path fill="#9d4918" d="M 63.0625 156.171875 C 60.875 150.851562 60.6875 145.273438 63.113281 143.527344 C 65.058594 142.128906 68.507812 142.808594 69.773438 144.84375 C 71.355469 147.375 69.0625 152.46875 65.019531 156.5625 C 64.0625 157.527344 63.578125 157.433594 63.0625 156.171875 " fill-opacity="1" fill-rule="evenodd"/><path fill="#9d4918" d="M 102.109375 151.769531 C 97.261719 154.867188 91.796875 156.039062 89.652344 153.964844 C 87.929688 152.296875 87.984375 148.785156 89.761719 147.179688 C 91.972656 145.175781 97.394531 146.523438 102.144531 149.773438 C 103.265625 150.539062 103.257812 151.042969 102.109375 151.769531 " fill-opacity="1" fill-rule="evenodd"/><path fill="#9d4918" d="M 44.386719 127.011719 C 41.214844 122.21875 39.949219 116.773438 41.988281 114.59375 C 43.625 112.847656 47.144531 112.847656 48.78125 114.59375 C 50.820312 116.773438 49.554688 122.21875 46.386719 127.011719 C 45.636719 128.144531 45.136719 128.144531 44.386719 127.011719 " fill-opacity="1" fill-rule="evenodd"/><path fill="#9d4918" d="M 80.507812 115.835938 C 80.398438 121.585938 78.347656 126.78125 75.433594 127.417969 C 73.09375 127.929688 70.199219 125.9375 69.84375 123.566406 C 69.398438 120.617188 73.53125 116.851562 78.863281 114.703125 C 80.128906 114.195312 80.535156 114.480469 80.507812 115.835938 " fill-opacity="1" fill-rule="evenodd"/><path fill="#9d4918" d="M 104.371094 117.15625 C 110.023438 116.089844 115.53125 117.039062 116.75 119.761719 C 117.730469 121.945312 116.371094 125.1875 114.121094 126.015625 C 111.320312 127.054688 106.792969 123.78125 103.597656 119 C 102.84375 117.871094 103.035156 117.410156 104.371094 117.15625 " fill-opacity="1" fill-rule="evenodd"/><path fill="#9d4918" d="M 29.550781 95.917969 C 24.5625 93.050781 20.996094 88.75 21.84375 85.886719 C 22.519531 83.589844 25.664062 82.015625 27.914062 82.847656 C 30.71875 83.882812 32.023438 89.3125 31.335938 95.023438 C 31.171875 96.367188 30.726562 96.589844 29.550781 95.917969 " fill-opacity="1" fill-rule="evenodd"/><path fill="#9d4918" d="M 57.789062 96.167969 C 57.34375 90.433594 58.882812 85.070312 61.722656 84.148438 C 64.007812 83.414062 67.078125 85.121094 67.660156 87.441406 C 68.386719 90.335938 64.644531 94.484375 59.539062 97.140625 C 58.332031 97.761719 57.898438 97.523438 57.789062 96.167969 " fill-opacity="1" fill-rule="evenodd"/><path fill="#9d4918" d="M 95.226562 97.464844 C 92.050781 92.667969 90.792969 87.226562 92.832031 85.046875 C 94.46875 83.296875 97.988281 83.296875 99.621094 85.046875 C 101.664062 87.226562 100.398438 92.667969 97.226562 97.464844 C 96.476562 98.597656 95.976562 98.597656 95.226562 97.464844 " fill-opacity="1" fill-rule="evenodd"/><path fill="#9d4918" d="M 51.84375 61.289062 C 47.09375 64.535156 41.671875 65.886719 39.460938 63.878906 C 37.683594 62.269531 37.628906 58.757812 39.355469 57.09375 C 41.5 55.019531 46.960938 56.195312 51.816406 59.289062 C 52.957031 60.023438 52.964844 60.519531 51.84375 61.289062 " fill-opacity="1" fill-rule="evenodd"/><path fill="#9d4918" d="M 79.699219 66.734375 C 74.953125 63.484375 71.730469 58.921875 72.796875 56.132812 C 73.65625 53.898438 76.910156 52.570312 79.089844 53.578125 C 81.796875 54.828125 82.679688 60.34375 81.550781 65.984375 C 81.28125 67.3125 80.820312 67.5 79.699219 66.734375 " fill-opacity="1" fill-rule="evenodd"/><path fill="#9d4918" d="M 34.589844 39.019531 C 28.992188 37.699219 24.339844 34.601562 24.332031 31.617188 C 24.324219 29.222656 26.886719 26.8125 29.277344 26.964844 C 32.253906 27.15625 35.066406 31.984375 36.042969 37.648438 C 36.273438 38.988281 35.914062 39.332031 34.589844 39.019531 " fill-opacity="1" fill-rule="evenodd"/><path fill="#9d4918" d="M 57.980469 30.125 C 62.339844 26.371094 67.582031 24.429688 70 26.179688 C 71.941406 27.582031 72.386719 31.066406 70.859375 32.914062 C 68.957031 35.207031 63.394531 34.648438 58.230469 32.101562 C 57.011719 31.503906 56.953125 31.011719 57.980469 30.125 " fill-opacity="1" fill-rule="evenodd"/><g clip-path="url(#735b226b25)"><path fill="#9d4918" d="M 115.472656 31.683594 C 119.242188 27.339844 124.148438 24.664062 126.796875 26.042969 C 128.921875 27.152344 129.867188 30.535156 128.617188 32.582031 C 127.070312 35.128906 121.484375 35.378906 116.007812 33.605469 C 114.71875 33.191406 114.582031 32.710938 115.472656 31.683594 " fill-opacity="1" fill-rule="evenodd"/></g><g clip-path="url(#29986b25cb)"><path fill="#9d4918" d="M 52.503906 14.019531 C 48.761719 9.648438 46.839844 4.402344 48.59375 1.992188 C 50.003906 0.0546875 53.492188 -0.378906 55.332031 1.15625 C 57.625 3.070312 57.042969 8.625 54.484375 13.773438 C 53.878906 14.988281 53.386719 15.050781 52.503906 14.019531 " fill-opacity="1" fill-rule="evenodd"/></g><g clip-path="url(#acef78c57a)"><path fill="#9d4918" d="M 79.214844 0.234375 C 84.96875 0.425781 90.136719 2.550781 90.730469 5.472656 C 91.207031 7.820312 89.171875 10.683594 86.796875 11.003906 C 83.839844 11.40625 80.132812 7.226562 78.058594 1.859375 C 77.566406 0.59375 77.859375 0.1875 79.214844 0.234375 " fill-opacity="1" fill-rule="evenodd"/></g><g clip-path="url(#cca1c3c30e)"><path fill="#9d4918" d="M 116.015625 8.457031 C 118.660156 3.351562 122.800781 -0.402344 125.695312 0.320312 C 128.023438 0.894531 129.738281 3.964844 129.007812 6.246094 C 128.09375 9.085938 122.726562 10.636719 116.988281 10.203125 C 115.632812 10.101562 115.394531 9.664062 116.015625 8.457031 " fill-opacity="1" fill-rule="evenodd"/></g><path fill="#9d4918" d="M 26.160156 159.078125 C 22.984375 154.277344 21.722656 148.835938 23.761719 146.660156 C 25.398438 144.910156 28.914062 144.910156 30.550781 146.660156 C 32.589844 148.835938 31.328125 154.277344 28.152344 159.078125 C 27.40625 160.207031 26.910156 160.207031 26.160156 159.078125 " fill-opacity="1" fill-rule="evenodd"/><g clip-path="url(#761f6cb85d)"><path fill="#9d4918" d="M 16.203125 5.765625 C 11.351562 8.859375 5.886719 10.03125 3.742188 7.957031 C 2.019531 6.292969 2.074219 2.78125 3.851562 1.171875 C 6.0625 -0.832031 11.488281 0.519531 16.234375 3.769531 C 17.355469 4.535156 17.347656 5.03125 16.203125 5.765625 " fill-opacity="1" fill-rule="evenodd"/></g><g clip-path="url(#15fc2c25d1)"><path fill="#9d4918" d="M 127.65625 333.433594 C 122.054688 332.117188 117.410156 329.015625 117.398438 326.035156 C 117.390625 323.636719 119.953125 321.230469 122.34375 321.378906 C 125.324219 321.570312 128.136719 326.398438 129.113281 332.066406 C 129.34375 333.402344 128.980469 333.742188 127.65625 333.433594 " fill-opacity="1" fill-rule="evenodd"/></g><g clip-path="url(#76e85e3cff)"><path fill="#9d4918" d="M 121.960938 159.503906 C 119.773438 154.183594 119.589844 148.597656 122.011719 146.859375 C 123.957031 145.457031 127.410156 146.140625 128.675781 148.167969 C 130.253906 150.703125 127.960938 155.796875 123.917969 159.886719 C 122.964844 160.855469 122.476562 160.757812 121.960938 159.503906 " fill-opacity="1" fill-rule="evenodd"/></g><g clip-path="url(#03634b990a)"><path fill="#9d4918" d="M 128.09375 94.960938 C 122.664062 96.867188 117.078125 96.765625 115.460938 94.253906 C 114.164062 92.238281 115.019531 88.832031 117.121094 87.671875 C 119.730469 86.230469 124.703125 88.78125 128.582031 93.027344 C 129.496094 94.027344 129.375 94.511719 128.09375 94.960938 " fill-opacity="1" fill-rule="evenodd"/></g><path fill="#9d4918" d="M 106.757812 66.832031 C 103.585938 62.035156 102.324219 56.59375 104.363281 54.414062 C 106 52.667969 109.515625 52.667969 111.152344 54.414062 C 113.195312 56.59375 111.933594 62.035156 108.757812 66.832031 C 108.007812 67.964844 107.511719 67.964844 106.757812 66.832031 " fill-opacity="1" fill-rule="evenodd"/><path fill="#9d4918" d="M 88.453125 38.375 C 88.410156 32.625 90.316406 27.375 93.21875 26.664062 C 95.542969 26.085938 98.492188 28.003906 98.910156 30.363281 C 99.429688 33.300781 95.402344 37.171875 90.125 39.460938 C 88.878906 40.003906 88.464844 39.734375 88.453125 38.375 " fill-opacity="1" fill-rule="evenodd"/></g></g></g></svg>